<svg
  viewBox="0 0 10 10"
  width="10"
  height="10"
  fill="grey"
  stroke="grey"
  stroke-width="0"
  stroke-linecap="round"
  stroke-linejoin="round"
  xmlns="http://www.w3.org/2000/svg">
  <path d="
    M 1 1
    a .5 .5 0 0 1 .5 -0.5
    h 2.5
    a .5 .5 0 0 1 .5 .5
    v 1
    a .5 .5 0 0 1 -.5 .5
    v 0.4
    l -0.8 -0.4
    h -1.7
    a .5 .5 0 0 1 -.5 -.5
    z

    M 5.5 2
    a .5 .5 0 0 1 .5 -0.5
    h 2.5
    a .5 .5 0 0 1 .5 .5
    v 1
    a .5 .5 0 0 1 -.5 .5
    h -1.7
    l -0.8 0.4
    v -0.4
    a .5 .5 0 0 1 -.5 -.5
    z

    M 2 4
    a .5 .5 0 0 1 .5 -0.5
    h 2.5
    a .5 .5 0 0 1 .5 .5
    v 1
    a .5 .5 0 0 1 -.5 .5
    v 0.4
    l -0.8 -0.4
    h -1.7
    a .5 .5 0 0 1 -.5 -.5
    z

    M 5.5 6
    a .5 .5 0 0 1 .5 -0.5
    h 2.5
    a .5 .5 0 0 1 .5 .5
    v 1
    a .5 .5 0 0 1 -.5 .5
    h -1.7
    l -0.8 0.4
    v -0.4
    a .5 .5 0 0 1 -.5 -.5
    z

    M 1 6.5
    a .5 .5 0 0 1 .5 -0.5
    h 2.5
    a .5 .5 0 0 1 .5 .5
    v 1
    a .5 .5 0 0 1 -.5 .5
    h -1.7
    l -0.8 0.4
    v -0.4
    a .5 .5 0 0 1 -.5 -.5
    z

    M .5 9
    a .5 .5 0 0 1 .5 -0.5
    h 8
    a .5 .5 0 0 1 .5 0.5
    a .5 .5 0 0 1 -.5 0.5
    h -8
    a .5 .5 0 0 1 -.5 -0.5
    z
  "/>
</svg>