<svg
  viewBox="0 0 10 10"
  width="10"
  height="10"
  fill="grey"
  stroke="grey"
  stroke-width="0"
  fill-rule="evenodd"
  stroke-linecap="round"
  stroke-linejoin="round"
  xmlns="http://www.w3.org/2000/svg">
  <path d="
    M 1 1
    a .5 .5 0 0 1 .5 -.5
    h 8
    a .5 .5 0 0 1 .5 .5
    v 8
    a .5 .5 0 0 1 -.5 .5
    h -8
    a .5 .5 0 0 1 -.5 -.5
    v -7.5
    h .5
    a .5 .5 0 0 1 .5 -.5
    h 7
    a .5 .5 0 0 1 .5 .5
    v 7
    a .5 .5 0 0 1 -.5 .5
    h -7
    a .5 .5 0 0 1 -.5 -.5
    v -7
    h -.5
    z
    
    M 8 3
    a .7 .7 0 0 1 -.7 -.7
    a .7 .7 0 0 1 .7 -.7
    a .7 .7 0 0 1 .7 .7
    a .7 .7 0 0 1 -.7 .7
    z

    M 5.5 6.9
    a 2 2 0 0 1 -2 -2
    a 2 2 0 0 1 2 -2
    a 2 2 0 0 1 2 2
    a 2 2 0 0 1 -2 2
    z
  "/>
</svg>